{"buffers":[{"uri":"LONG1 v5.gltf.bin","byteLength":182256}],"asset":{"version":"2.0","generator":"gltfpack 0.16"},"bufferViews":[{"buffer":0,"byteOffset":0,"byteLength":66600,"byteStride":12,"target":34962},{"buffer":0,"byteOffset":66600,"byteLength":66600,"byteStride":12,"target":34962},{"buffer":0,"byteOffset":133200,"byteLength":49056,"target":34963}],"accessors":[{"bufferView":0,"byteOffset":0,"componentType":5126,"count":5550,"type":"VEC3","min":[-4.62637072e-05,0,-4.07529515e-05],"max":[4.62637072e-05,0.000180216579,4.07529515e-05]},{"bufferView":1,"byteOffset":0,"componentType":5126,"count":5550,"type":"VEC3"},{"bufferView":2,"byteOffset":0,"componentType":5123,"count":24528,"type":"SCALAR"}],"materials":[{"pbrMetallicRoughness":{"baseColorFactor":[0.247058824,0.247058824,0.247058824,1],"metallicFactor":0,"roughnessFactor":0},"doubleSided":true}],"meshes":[{"primitives":[{"attributes":{"POSITION":0,"NORMAL":1},"mode":4,"indices":2,"material":0}]}],"nodes":[{"mesh":0},{"children":[0]}],"scenes":[{"nodes":[1]}]}